<svg height='300px' width='300px'  fill="#000000" xmlns="http://www.w3.org/2000/svg" xmlns:xlink="http://www.w3.org/1999/xlink" version="1.1" x="0px" y="0px" viewBox="0 0 100 100" enable-background="new 0 0 100 100" xml:space="preserve"><g><g><path d="M92.652,43.173l-8.115-1.152c-1.488-0.211-2.876,0.832-3.089,2.321l-3.735,26.299C76.728,77.694,74.063,81,65.78,81    H34.364c-8.164,0-10.898-3.034-11.934-10.359l-1.669-11.749c-0.211-1.488,0.846-2.705,2.348-2.705h5.282    c1.502,0,2.732-1.229,2.732-2.731v-8.194c0-1.502-1.23-2.732-2.732-2.732H7.375c-1.502,0-2.559,1.217-2.348,2.706l3.88,27.327    c1.894,13.395,9.781,22.097,25.457,22.097H65.78c15.053,0,23.387-7.615,25.458-22.097l3.735-26.299    C95.182,44.774,94.141,43.384,92.652,43.173z M58.95,73.527l8.113,1.152c1.488,0.208,2.876-0.832,3.089-2.321l8.91-62.749    c0.214-1.488-0.832-2.878-2.32-3.089l-8.11-1.152c-1.488-0.21-2.879,0.833-3.089,2.321L56.63,70.438    C56.419,71.927,57.462,73.313,58.95,73.527z M37.836,73.527l8.113,1.152c1.488,0.208,2.878-0.832,3.089-2.321L57.953,9.61    c0.21-1.488-0.833-2.878-2.321-3.089l-8.114-1.152c-1.488-0.21-2.878,0.833-3.089,2.321l-8.913,62.749    C35.305,71.927,36.348,73.313,37.836,73.527z"></path></g></g></svg>